<?xml version="1.0" encoding="UTF-8" standalone="no"?>
<svg
   xmlns:dc="http://purl.org/dc/elements/1.1/"
   xmlns:cc="http://creativecommons.org/ns#"
   xmlns:rdf="http://www.w3.org/1999/02/22-rdf-syntax-ns#"
   xmlns:svg="http://www.w3.org/2000/svg"
   xmlns="http://www.w3.org/2000/svg"
   xmlns:sodipodi="http://sodipodi.sourceforge.net/DTD/sodipodi-0.dtd"
   xmlns:inkscape="http://www.inkscape.org/namespaces/inkscape"
   version="1.1"
   id="svg2"
   sodipodi:docname="logo.svg"
   inkscape:version="0.92.5 (2060ec1f9f, 2020-04-08)"
   width="144.836"
   height="144.836">
  <metadata
     id="metadata8">
    <rdf:RDF>
      <cc:Work
         rdf:about="">
        <dc:format>image/svg+xml</dc:format>
        <dc:type
           rdf:resource="http://purl.org/dc/dcmitype/StillImage" />
        <dc:title></dc:title>
      </cc:Work>
    </rdf:RDF>
  </metadata>
  <defs
     id="defs6" />
  <sodipodi:namedview
     pagecolor="#ffffff"
     bordercolor="#666666"
     borderopacity="1"
     objecttolerance="10"
     gridtolerance="10"
     guidetolerance="10"
     inkscape:pageopacity="0"
     inkscape:pageshadow="2"
     inkscape:window-width="1366"
     inkscape:window-height="719"
     id="namedview4"
     showgrid="false"
     inkscape:zoom="3.6243642"
     inkscape:cx="55.888852"
     inkscape:cy="68.695354"
     inkscape:window-x="0"
     inkscape:window-y="25"
     inkscape:window-maximized="1"
     inkscape:current-layer="svg2"
     fit-margin-top="0"
     fit-margin-left="0"
     fit-margin-right="0"
     fit-margin-bottom="0" />
  <rect
     style="opacity:1;fill:#ffffff;fill-opacity:1;stroke:#000000;stroke-width:3;stroke-linecap:round;stroke-linejoin:round;stroke-miterlimit:4;stroke-dasharray:none;stroke-dashoffset:0;stroke-opacity:1"
     id="rect873"
     width="141.836"
     height="141.836"
     x="1.5"
     y="1.5" />
  <g
     id="g894"
     transform="translate(52.685528,42.565279)">
    <g
       id="text817"
       style="font-style:normal;font-variant:normal;font-weight:bold;font-stretch:normal;font-size:24px;line-height:1.25;font-family:sans-serif;-inkscape-font-specification:'sans-serif, Bold';font-variant-ligatures:normal;font-variant-caps:normal;font-variant-numeric:normal;font-feature-settings:normal;text-align:center;letter-spacing:0px;word-spacing:0px;writing-mode:lr-tb;text-anchor:middle;fill:#000000;fill-opacity:1;stroke:none"
       aria-label="EXAMPLE">
      <path
         id="path858"
         d="m -41.603466,11.878372 h 12.175781 v 3.410156 h -7.664062 v 3.257813 h 7.207031 v 3.410156 h -7.207031 v 4.007813 h 7.921875 v 3.410156 h -12.433594 z"
         inkscape:connector-curvature="0" />
      <path
         id="path860"
         d="m -15.458935,20.444778 6.0703127,8.929688 h -4.6992187 l -4.089844,-5.976563 -4.054687,5.976563 h -4.722657 l 6.070313,-8.929688 -5.835938,-8.566406 h 4.710938 l 3.832031,5.636719 3.820313,-5.636719 h 4.7343747 z"
         inkscape:connector-curvature="0" />
      <path
         id="path862"
         d="m 3.912159,26.186966 h -7.0546875 l -1.1132813,3.1875 H -8.790966 L -2.3104973,11.878372 H 3.068409 L 9.5488777,29.374466 H 5.0137215 Z M -2.0175285,22.940872 H 2.7754402 L 0.38481522,15.979935 Z"
         inkscape:connector-curvature="0" />
      <path
         id="path864"
         d="m 11.86919,11.878372 h 5.742188 l 3.984375,9.363281 4.007812,-9.363281 h 5.730469 V 29.374466 H 27.068409 V 16.577591 l -4.03125,9.433594 h -2.859375 l -4.03125,-9.433594 V 29.374466 H 11.86919 Z"
         inkscape:connector-curvature="0" />
      <path
         id="path866"
         d="m 35.752003,11.878372 h 7.488281 q 3.339844,0 5.121094,1.488281 1.792968,1.476563 1.792968,4.21875 0,2.753907 -1.792968,4.242188 -1.78125,1.476562 -5.121094,1.476562 h -2.976563 v 6.070313 h -4.511718 z m 4.511718,3.269531 v 4.886719 h 2.496094 q 1.3125,0 2.027344,-0.632812 0.714844,-0.644532 0.714844,-1.816407 0,-1.171875 -0.714844,-1.804687 -0.714844,-0.632813 -2.027344,-0.632813 z"
         inkscape:connector-curvature="0" />
      <path
         id="path868"
         d="m 53.341846,11.878372 h 4.511719 V 25.96431 h 7.921875 v 3.410156 H 53.341846 Z"
         inkscape:connector-curvature="0" />
      <path
         id="path870"
         d="m 68.634815,11.878372 h 12.175781 v 3.410156 h -7.664062 v 3.257813 h 7.207031 v 3.410156 h -7.207031 v 4.007813 h 7.921875 v 3.410156 H 68.634815 Z"
         inkscape:connector-curvature="0" />
    </g>
    <g
       transform="matrix(0.77049983,0,0,0.77049983,26.647334,3.7608114)"
       id="text817-6"
       style="font-style:normal;font-variant:normal;font-weight:bold;font-stretch:normal;font-size:24px;line-height:1.25;font-family:sans-serif;-inkscape-font-specification:'sans-serif, Bold';font-variant-ligatures:normal;font-variant-caps:normal;font-variant-numeric:normal;font-feature-settings:normal;text-align:center;letter-spacing:0px;word-spacing:0px;writing-mode:lr-tb;text-anchor:middle;fill:#000000;fill-opacity:1;stroke:none"
       aria-label="INDUSTRIES">
      <path
         inkscape:connector-curvature="0"
         id="path837"
         d="m -88.579984,39.355843 h 4.511719 v 17.496093 h -4.511719 z" />
      <path
         inkscape:connector-curvature="0"
         id="path839"
         d="m -79.650296,39.355843 h 5.039062 l 6.363282,12 v -12 h 4.277343 v 17.496093 h -5.039062 l -6.363281,-12 v 12 h -4.277344 z" />
      <path
         inkscape:connector-curvature="0"
         id="path841"
         d="M -55.05264,42.765999 V 53.44178 h 1.617188 q 2.765625,0 4.21875,-1.371094 1.464843,-1.371093 1.464843,-3.984375 0,-2.601562 -1.453125,-3.960937 -1.453125,-1.359375 -4.230468,-1.359375 z m -4.511719,-3.410156 h 4.757813 q 3.984375,0 5.929687,0.574218 1.957032,0.5625 3.351563,1.921875 1.230469,1.183594 1.828125,2.730469 0.597656,1.546875 0.597656,3.503906 0,1.980469 -0.597656,3.539063 -0.597656,1.546875 -1.828125,2.730469 -1.40625,1.359375 -3.375,1.933593 -1.96875,0.5625 -5.90625,0.5625 h -4.757813 z" />
      <path
         inkscape:connector-curvature="0"
         id="path843"
         d="m -39.642484,39.355843 h 4.511719 v 10.488281 q 0,2.167969 0.703125,3.105469 0.714844,0.925781 2.320313,0.925781 1.617187,0 2.320312,-0.925781 0.714844,-0.9375 0.714844,-3.105469 V 39.355843 h 4.511719 v 10.488281 q 0,3.714844 -1.863282,5.53125 -1.863281,1.816406 -5.683593,1.816406 -3.808594,0 -5.671875,-1.816406 -1.863282,-1.816406 -1.863282,-5.53125 z" />
      <path
         inkscape:connector-curvature="0"
         id="path845"
         d="m -7.9784212,39.906624 v 3.703125 q -1.4414063,-0.644531 -2.8124998,-0.972656 -1.371094,-0.328125 -2.589844,-0.328125 -1.617187,0 -2.390625,0.445312 -0.773437,0.445313 -0.773437,1.382813 0,0.703125 0.515625,1.101562 0.527343,0.386719 1.898437,0.667969 l 1.921875,0.386719 q 2.9179688,0.585937 4.1484375,1.78125 1.2304688,1.195312 1.2304688,3.398437 0,2.894531 -1.7226563,4.3125 -1.710937,1.40625 -5.238281,1.40625 -1.664063,0 -3.339844,-0.316406 -1.675781,-0.316406 -3.351562,-0.9375 V 52.12928 q 1.675781,0.890625 3.234375,1.347656 1.570312,0.445313 3.023437,0.445313 1.476563,0 2.261719,-0.492188 0.785156,-0.492187 0.785156,-1.40625 0,-0.820312 -0.539062,-1.265625 -0.527344,-0.445312 -2.121094,-0.796875 l -1.746094,-0.386718 q -2.625,-0.5625 -3.84375,-1.792969 -1.207031,-1.230469 -1.207031,-3.316406 0,-2.613282 1.6875,-4.019532 1.6875,-1.40625 4.851562,-1.40625 1.441407,0 2.964844,0.222657 1.5234375,0.210937 3.1523438,0.644531 z" />
      <path
         inkscape:connector-curvature="0"
         id="path847"
         d="M -4.9549837,39.355843 H 11.170016 v 3.410156 H 5.369235 V 56.851936 H 0.85751629 V 42.765999 H -4.9549837 Z" />
      <path
         inkscape:connector-curvature="0"
         id="path849"
         d="m 19.912204,47.113655 q 1.417969,0 2.027344,-0.527344 0.621093,-0.527343 0.621093,-1.734375 0,-1.195312 -0.621093,-1.710937 -0.609375,-0.515625 -2.027344,-0.515625 h -1.898438 v 4.488281 z m -1.898438,3.117188 v 6.621093 H 13.502048 V 39.355843 h 6.890625 q 3.457031,0 5.0625,1.160156 1.617187,1.160156 1.617187,3.667969 0,1.734375 -0.84375,2.847656 -0.832031,1.113281 -2.519531,1.640625 0.925781,0.210937 1.652344,0.960937 0.738281,0.738282 1.488281,2.25 l 2.449219,4.96875 H 24.494235 L 22.361423,52.50428 q -0.644532,-1.3125 -1.3125,-1.792969 -0.65625,-0.480468 -1.757813,-0.480468 z" />
      <path
         inkscape:connector-curvature="0"
         id="path851"
         d="m 31.982516,39.355843 h 4.511719 v 17.496093 h -4.511719 z" />
      <path
         inkscape:connector-curvature="0"
         id="path853"
         d="m 40.912204,39.355843 h 12.175781 v 3.410156 h -7.664062 v 3.257812 h 7.207031 v 3.410157 h -7.207031 v 4.007812 h 7.921875 v 3.410156 H 40.912204 Z" />
      <path
         inkscape:connector-curvature="0"
         id="path855"
         d="m 69.482516,39.906624 v 3.703125 q -1.441406,-0.644531 -2.8125,-0.972656 -1.371093,-0.328125 -2.589843,-0.328125 -1.617188,0 -2.390625,0.445312 -0.773438,0.445313 -0.773438,1.382813 0,0.703125 0.515625,1.101562 0.527344,0.386719 1.898438,0.667969 l 1.921875,0.386719 q 2.917968,0.585937 4.148437,1.78125 1.230469,1.195312 1.230469,3.398437 0,2.894531 -1.722656,4.3125 -1.710938,1.40625 -5.238282,1.40625 -1.664062,0 -3.339843,-0.316406 -1.675782,-0.316406 -3.351563,-0.9375 V 52.12928 q 1.675781,0.890625 3.234375,1.347656 1.570313,0.445313 3.023438,0.445313 1.476562,0 2.261718,-0.492188 0.785157,-0.492187 0.785157,-1.40625 0,-0.820312 -0.539063,-1.265625 -0.527344,-0.445312 -2.121094,-0.796875 l -1.746093,-0.386718 q -2.625,-0.5625 -3.84375,-1.792969 -1.207032,-1.230469 -1.207032,-3.316406 0,-2.613282 1.6875,-4.019532 1.6875,-1.40625 4.851563,-1.40625 1.441406,0 2.964844,0.222657 1.523437,0.210937 3.152343,0.644531 z" />
    </g>
  </g>
</svg>
